/* XPM */
static char * ganzvorne_xpm[] = {
"32 32 249 2",
"  	c None",
". 	c #12FFD5",
"+ 	c #1FFFD9",
"@ 	c #35FFDA",
"# 	c #33FFD9",
"$ 	c #09FFD0",
"% 	c #00EDCF",
"& 	c #32FFDC",
"* 	c #9BFFF2",
"= 	c #AAFFF7",
"- 	c #29FFDC",
"; 	c #00CCD0",
"> 	c #4DFFDE",
", 	c #00E5D0",
"' 	c #25FFD7",
") 	c #96FFF1",
"! 	c #AAFFF4",
"~ 	c #74FFE8",
"{ 	c #08FFD1",
"] 	c #00C8CE",
"^ 	c #0CFFD5",
"/ 	c #38FFDD",
"( 	c #7AFFE8",
"_ 	c #29FFD7",
": 	c #00DBD1",
"< 	c #8EFFF1",
"[ 	c #95FFF0",
"} 	c #00CEC7",
"| 	c #00BAC6",
"1 	c #86FFE8",
"2 	c #87FFED",
"3 	c #31FFD8",
"4 	c #05FFD0",
"5 	c #B3FFF7",
"6 	c #67FFE7",
"7 	c #00FDD3",
"8 	c #00C4CC",
"9 	c #00B7BF",
"0 	c #80FFEB",
"a 	c #00F8C5",
"b 	c #B9FFF8",
"c 	c #5BFFE2",
"d 	c #4EFFE4",
"e 	c #3EFFE9",
"f 	c #12FFDA",
"g 	c #79FFEC",
"h 	c #1FFFD0",
"i 	c #00C0C5",
"j 	c #00EDD1",
"k 	c #81FFFE",
"l 	c #69FFED",
"m 	c #00F0C4",
"n 	c #00B0C0",
"o 	c #00F5D5",
"p 	c #16FFCB",
"q 	c #82FFE4",
"r 	c #A2FFF4",
"s 	c #47FFEE",
"t 	c #74FFFE",
"u 	c #55FFF9",
"v 	c #00ACB9",
"w 	c #00E4D5",
"x 	c #0CFFC9",
"y 	c #00E9C2",
"z 	c #27FFDB",
"A 	c #51FFED",
"B 	c #58FFFF",
"C 	c #45FFFE",
"D 	c #1CFFF0",
"E 	c #00A4B3",
"F 	c #0DFFD8",
"G 	c #59FFE6",
"H 	c #00E0B9",
"I 	c #D1FFFE",
"J 	c #00FFD9",
"K 	c #70FFF8",
"L 	c #19FFFC",
"M 	c #00DEEC",
"N 	c #7BFFE3",
"O 	c #B2FFF5",
"P 	c #37FFE9",
"Q 	c #00F2FA",
"R 	c #00C7EC",
"S 	c #009CAE",
"T 	c #00D4D2",
"U 	c #C4FFFC",
"V 	c #77FFE9",
"W 	c #68FFFC",
"X 	c #00E2FC",
"Y 	c #00BAED",
"Z 	c #009CC2",
"` 	c #47FFE3",
" .	c #009DB1",
"..	c #00D9B2",
"+.	c #45FFDF",
"@.	c #87FFFF",
"#.	c #34FFFF",
"$.	c #00FCF8",
"%.	c #00D0F9",
"&.	c #00ACEB",
"*.	c #0091A6",
"=.	c #00EDD5",
"-.	c #33FFE6",
";.	c #37FFE1",
">.	c #00D7BF",
",.	c #00D6AC",
"'.	c #AFFFF7",
").	c #3FFFFE",
"!.	c #00BDFF",
"~.	c #00A7E5",
"{.	c #0096BC",
"].	c #00C1D3",
"^.	c #25FFE5",
"/.	c #00CBBD",
"(.	c #0094AE",
"_.	c #82FFDD",
":.	c #93FFF2",
"<.	c #1DFFE0",
"[.	c #22FFFC",
"}.	c #00AEF8",
"|.	c #009DE5",
"1.	c #008FB9",
"2.	c #0089A3",
"3.	c #00B8D5",
"4.	c #00D6D6",
"5.	c #16FFE3",
"6.	c #17FFDC",
"7.	c #00C2BC",
"8.	c #00C9A5",
"9.	c #A5FFF6",
"0.	c #12FFFC",
"a.	c #00C0F9",
"b.	c #00A3F7",
"c.	c #008EE0",
"d.	c #0089B1",
"e.	c #00809E",
"f.	c #00B0D6",
"g.	c #00CAD6",
"h.	c #0AFFD9",
"i.	c #79FFD9",
"j.	c #00C4E0",
"k.	c #00FCF0",
"l.	c #0096F3",
"m.	c #008ADA",
"n.	c #007EB1",
"o.	c #00A6D2",
"p.	c #00C4D7",
"q.	c #00F0E1",
"r.	c #00B0B8",
"s.	c #00BEA1",
"t.	c #6EFFD6",
"u.	c #DBFFFF",
"v.	c #D7FFFF",
"w.	c #00B1CF",
"x.	c #0096D3",
"y.	c #00CBE6",
"z.	c #00A3F1",
"A.	c #0089F0",
"B.	c #0081D9",
"C.	c #007295",
"D.	c #00BFD9",
"E.	c #007A9D",
"F.	c #00B79E",
"G.	c #67FFD3",
"H.	c #00C0D8",
"I.	c #00A9DB",
"J.	c #007EDC",
"K.	c #006DAC",
"L.	c #009FD0",
"M.	c #00E7E2",
"N.	c #00AB9A",
"O.	c #63FFD1",
"P.	c #0079C8",
"Q.	c #0075D1",
"R.	c #0096E9",
"S.	c #007DF2",
"T.	c #0076DE",
"U.	c #0076AF",
"V.	c #006D8E",
"W.	c #00729F",
"X.	c #00A494",
"Y.	c #5EFFCD",
"Z.	c #CDFFFE",
"`.	c #9FFFF1",
" +	c #19FFCC",
".+	c #0081CA",
"++	c #0085D2",
"@+	c #00E2D6",
"#+	c #56FFC8",
"$+	c #44FFD9",
"%+	c #00DCC7",
"&+	c #008AC6",
"*+	c #006ACE",
"=+	c #006BE5",
"-+	c #0073F5",
";+	c #0070E1",
">+	c #00648F",
",+	c #008DD2",
"'+	c #00D8E3",
")+	c #006999",
"!+	c #009E91",
"~+	c #4FFFC2",
"{+	c #ABFFF5",
"]+	c #55FFD9",
"^+	c #006AC1",
"/+	c #0068DF",
"(+	c #006189",
"_+	c #00A1D9",
":+	c #00978E",
"<+	c #19FFC3",
"[+	c #0072E9",
"}+	c #0066D6",
"|+	c #0062A5",
"1+	c #0096D9",
"2+	c #48FFC0",
"3+	c #92FFE9",
"4+	c #007BD4",
"5+	c #005EC3",
"6+	c #005A9C",
"7+	c #005D84",
"8+	c #00B8E2",
"9+	c #00B9D6",
"0+	c #0081A8",
"a+	c #00918A",
"b+	c #3DFFBA",
"c+	c #0070B7",
"d+	c #005E96",
"e+	c #005684",
"f+	c #00B0E0",
"g+	c #0080B0",
"h+	c #005A89",
"i+	c #00C2B2",
"j+	c #006B8E",
"k+	c #004A7D",
"l+	c #0079A7",
"m+	c #008686",
"n+	c #2DFFB3",
"o+	c #9AFFF3",
"p+	c #45FFC5",
"q+	c #007FCE",
"r+	c #0092B6",
"s+	c #005084",
"t+	c #008286",
"u+	c #00D591",
"v+	c #0083BA",
"w+	c #004F7B",
"x+	c #0093C5",
"y+	c #004479",
"z+	c #96FFEF",
"                                                                ",
"        . + @ # $ % & *                             = - ;       ",
"        . - > > . , ' )                           ! ~ { ]       ",
"        ^ / ~ ( _ : { <                         [ / % } |       ",
"        ^ / 1 2 3 ] 4 2                       5 6 7 8 | 9       ",
"        { / 0 1 _ 8 a 2                   b 2 c d e f } 9       ",
"        7 & g ( h i a 1                   ) ' j e k l m n       ",
"        o ' ~ 6 p 9 m q               b r 6 + o s t u m v       ",
"        w + 6 6 x 9 y q             b ~ _ z s A B C D } E       ",
"        w F G c a n H q           I r 3 ; J K k B L M n E       ",
"        : F d G a v H N         O 2 c z F P t t C Q R n S       ",
"        T F s > m E H N       U V 4 j e K t W B L X Y Z S       ",
"        T o e ` y  ...N     U r +.: w A @.k B #.$.%.&.Z *.      ",
"        ; =.-.;.>.S ,.q   '.6 / - P s W t W ).L X !.~.{.*.      ",
"        ].w ^.z /.(.,._.  :.4 ] <.t k t B ).[.$.%.}.|.1.2.      ",
"        3.4.5.6.7.*.8._.  9./ 7 6.s u C ).[.0.M a.b.c.d.e.      ",
"        f.g.h.h.9 2.8.i.  U = g z g.j.k.[.L Q %.}.l.m.n.e.      ",
"        o.p.q.J r.e.s.t.  u.v.b +.w.x.y.$.Q %.Y z.A.B.n.C.      ",
"        o.D.q.o v E.F.G.    v.U 2 & w H.I.~.&.z.l.A.J.K.C.      ",
"        L.3.M.o E E.N.O.      U b '.6 } P.Q.c.R.A.S.T.U.V.      ",
"        x.f.M.o  .W.X.Y.        Z.Z.`. +Z .+++J.S.S.T.K.V.      ",
"        x.f.M.@+ .C.X.#+          U O 1 $+%+&+*+=+-+;+K.>+      ",
"        ,+I.'+@+(.)+!+~+            b U {+]+v ^+/+-+;+K.(+      ",
"        ++_+'+4.(.>+:+~+            b U U 1 <+9 m.[+}+|+(+      ",
"        ++1+j.p.d.>+:+2+              5 5 ! 3+c T 4+5+6+7+      ",
"        ++1+8+9+0+(+a+b+                  5 b 9./ L.c+d+e+      ",
"        4+1+f+9+g+h+a+b+                    b ! g _ i+j+k+      ",
"        4+,+f+f.l+e+m+n+                        9.o+p+m+k+      ",
"        q+++Z r+)+s+t+n+                          5 i.u+m+      ",
"        &+v+W.>+s+w+t+n+                            3+O.p+      ",
"        x+g+(+w+y+k+t+n+                            z+z+z+      ",
"                                                                "};
