/* XPM */
static char * ganzhinten_xpm[] = {
"32 32 249 2",
"  	c None",
". 	c #00CCD0",
"+ 	c #29FFDC",
"@ 	c #AAFFF7",
"# 	c #9BFFF2",
"$ 	c #32FFDC",
"% 	c #00EDCF",
"& 	c #09FFD0",
"* 	c #33FFD9",
"= 	c #35FFDA",
"- 	c #1FFFD9",
"; 	c #12FFD5",
"> 	c #00C8CE",
", 	c #08FFD1",
"' 	c #74FFE8",
") 	c #AAFFF4",
"! 	c #96FFF1",
"~ 	c #27FFDB",
"{ 	c #00E5D0",
"] 	c #4DFFDE",
"^ 	c #2BFFD7",
"/ 	c #00C0C5",
"( 	c #00CAC7",
"_ 	c #00EDCE",
": 	c #38FFDD",
"< 	c #95FFF0",
"[ 	c #8EFFF1",
"} 	c #0CFFD5",
"| 	c #00D7D3",
"1 	c #7BFFE3",
"2 	c #00B7BF",
"3 	c #00BAC6",
"4 	c #00C4CC",
"5 	c #00FDD3",
"6 	c #67FFE7",
"7 	c #B4FFF7",
"8 	c #87FFED",
"9 	c #86FFE8",
"0 	c #00D5C6",
"a 	c #17FFDC",
"b 	c #3EFFE9",
"c 	c #4EFFE4",
"d 	c #5BFFE2",
"e 	c #B9FFF8",
"f 	c #00F8CC",
"g 	c #80FFEB",
"h 	c #05FFD0",
"i 	c #00B0C0",
"j 	c #00F0C4",
"k 	c #69FFED",
"l 	c #81FFFE",
"m 	c #37FFE9",
"n 	c #25FFD7",
"o 	c #00F8C5",
"p 	c #1FFFD0",
"q 	c #77FFE9",
"r 	c #79FFEC",
"s 	c #00ACB9",
"t 	c #55FFF9",
"u 	c #74FFFE",
"v 	c #47FFEE",
"w 	c #00F5D5",
"x 	c #A2FFF4",
"y 	c #00E9C2",
"z 	c #16FFCB",
"A 	c #00F0D4",
"B 	c #1CFFF0",
"C 	c #45FFFE",
"D 	c #58FFFF",
"E 	c #51FFED",
"F 	c #82FFE4",
"G 	c #0CFFC9",
"H 	c #00EAD3",
"I 	c #00A4B3",
"J 	c #00DEEC",
"K 	c #12FFFC",
"L 	c #87FFFF",
"M 	c #70FFF8",
"N 	c #00FFD9",
"O 	c #D1FFFE",
"P 	c #00E0B9",
"Q 	c #59FFE6",
"R 	c #12FFDA",
"S 	c #00E4D5",
"T 	c #009CAE",
"U 	c #00C7EC",
"V 	c #00F2FA",
"W 	c #0DFFD8",
"X 	c #AFFFF7",
"Y 	c #009CC2",
"Z 	c #00B8E2",
"` 	c #00E2FC",
" .	c #19FFFC",
"..	c #68FFFC",
"+.	c #C4FFFC",
"@.	c #47FFE3",
"#.	c #0091A6",
"$.	c #00ACEB",
"%.	c #00D0F9",
"&.	c #34FFFF",
"*.	c #45FFDF",
"=.	c #00D9B2",
"-.	c #009DB1",
";.	c #0096BC",
">.	c #00A7E5",
",.	c #00BDFF",
"'.	c #3FFFFE",
").	c #00D6AC",
"!.	c #00D7BF",
"~.	c #37FFE1",
"{.	c #33FFE6",
"].	c #0089A3",
"^.	c #008FB9",
"/.	c #009DE5",
"(.	c #00AEF8",
"_.	c #00FCF8",
":.	c #22FFFC",
"<.	c #93FFF2",
"[.	c #82FFDD",
"}.	c #0094AE",
"|.	c #00CBBD",
"1.	c #25FFE5",
"2.	c #00E2D6",
"3.	c #00C1D3",
"4.	c #00809E",
"5.	c #0089B1",
"6.	c #008EE0",
"7.	c #00A3F7",
"8.	c #00C0F9",
"9.	c #A5FFF6",
"0.	c #00C9A5",
"a.	c #00C2BC",
"b.	c #16FFE3",
"c.	c #00B8D5",
"d.	c #007EB1",
"e.	c #008ADA",
"f.	c #0096F3",
"g.	c #00FCF0",
"h.	c #00C4E0",
"i.	c #00CAD6",
"j.	c #79FFD9",
"k.	c #00B0B8",
"l.	c #0AFFD9",
"m.	c #00CDD9",
"n.	c #00B0D6",
"o.	c #007A9D",
"p.	c #0076AF",
"q.	c #0081D9",
"r.	c #0089F0",
"s.	c #00A3F1",
"t.	c #00BAED",
"u.	c #00CBE6",
"v.	c #0096D3",
"w.	c #00B1CF",
"x.	c #D7FFFF",
"y.	c #DBFFFF",
"z.	c #6EFFD6",
"A.	c #00BEA1",
"B.	c #00F0E1",
"C.	c #00C4D7",
"D.	c #00A6D2",
"E.	c #007295",
"F.	c #007EDC",
"G.	c #0095F4",
"H.	c #00A9DB",
"I.	c #00C0D8",
"J.	c #67FFD3",
"K.	c #00B79E",
"L.	c #00EDD5",
"M.	c #00BFD9",
"N.	c #006DAC",
"O.	c #007DF2",
"P.	c #0096E9",
"Q.	c #0075D1",
"R.	c #0079C8",
"S.	c #00D1CA",
"T.	c #5EFFCD",
"U.	c #00AB9A",
"V.	c #006D8E",
"W.	c #0076DE",
"X.	c #0085D2",
"Y.	c #0081CA",
"Z.	c #9FFFF1",
"`.	c #CDFFFE",
" +	c #00729F",
".+	c #00E7E2",
"++	c #006B8E",
"@+	c #0070E1",
"#+	c #0074F7",
"$+	c #006BE5",
"%+	c #006ACE",
"&+	c #008AC6",
"*+	c #00DCC7",
"=+	c #44FFD9",
"-+	c #56FFC8",
";+	c #00A494",
">+	c #006189",
",+	c #0068DF",
"'+	c #0073F5",
")+	c #006AC1",
"!+	c #55FFD9",
"~+	c #B3FFF7",
"{+	c #009E91",
"]+	c #008DD2",
"^+	c #0062A5",
"/+	c #0066D6",
"(+	c #0072E9",
"_+	c #19FFC3",
":+	c #48FFC0",
"<+	c #00978E",
"[+	c #00A1D9",
"}+	c #005D84",
"|+	c #005A9C",
"1+	c #005EC3",
"2+	c #007BD4",
"3+	c #92FFE9",
"4+	c #B2FFF5",
"5+	c #00648F",
"6+	c #0096D9",
"7+	c #005684",
"8+	c #005E96",
"9+	c #0070B7",
"0+	c #009FD0",
"a+	c #3DFFBA",
"b+	c #00918A",
"c+	c #0080B0",
"d+	c #00B9D6",
"e+	c #004A7D",
"f+	c #00C2B2",
"g+	c #ABFFF5",
"h+	c #008686",
"i+	c #005A89",
"j+	c #0081A8",
"k+	c #45FFC5",
"l+	c #9AFFF3",
"m+	c #2DFFB3",
"n+	c #0079A7",
"o+	c #00B0E0",
"p+	c #00D591",
"q+	c #008286",
"r+	c #005084",
"s+	c #006999",
"t+	c #0092B6",
"u+	c #0093C5",
"v+	c #63FFD1",
"w+	c #004F7B",
"x+	c #0083BA",
"y+	c #96FFEF",
"z+	c #004479",
"                                                                ",
"      . + @                             # $ % & * = - ;         ",
"      > , ' )                           ! ~ { ; ] ] ^ ;         ",
"      / ( _ : <                         [ } | ^ 1 ' : }         ",
"      2 3 4 5 6 7                       8 5 . ^ 9 9 : }         ",
"      2 0 a b c d 8 e                   8 f 4 ^ 9 g : h         ",
"      i j k l m _ n !                   9 o / p q r $ 5         ",
"      s j t u v w ; 6 x e               9 y 2 z ' k ^ A         ",
"      s ( B C D E v ^ n ' e             F y 2 G 6 6 a H         ",
"      I 3 J K D L M N . ^ x O           F P i o d Q R S         ",
"      T i U V C u u m W ~ d 8 X         1 P s o Q c W |         ",
"      T Y Z `  .D ..u M b A h q +.      1 P I j c @.} |         ",
"      #.Y $.%.V &.D l L E S | *.x +.    1 =.-.y @.b w |         ",
"      #.;.>.,.`  .'...u ..v m + : 6 X   F ).T !.~.{.A .         ",
"      ].^./.(.%._.:.'.t u l u a > h <.  [.).}.|.~ 1.2.3.        ",
"      4.5.6.7.8.` K :.'.C t v a 5 : 9.  [.0.#.a.a b.| c.        ",
"      4.d.e.f.(.%.V K :.g.h.i.n g 9.+.  j.0.].k.l.l.m.n.        ",
"      o.p.q.r.s.t.%.V g.u.v.w.*.e x.y.  z.A.].s w B.C.D.        ",
"      E.p.F.r.G.s.$.>.H.I.H $ 8 +.x.    J.K.4.s L.B.M.D.        ",
"      E.N.F.O.r.P.6.Q.R.S.6 X e +.      T.U.o.I w B.c.v.        ",
"      V.N.W.O.O.F.X.Y.Y z Z.`.`.        T.U. +-.% .+c.v.        ",
"      ++N.@+#+$+%+&+*+=+9 X +.          -+;+E.-.L..+H.v.        ",
"      >+N.,+'+,+)+s !+X +.~+            -+{+V.}.2..+H.]+        ",
"      >+^+/+(+e.2 _+9 +.+.e             :+<+++5.2.h.[+X.        ",
"      }+|+1+2+| d 3+) 4+~+              :+<+5+5.C.h.6+X.        ",
"      7+8+9+0+: x e ~+                  a+b+>+c+d+Z 6+X.        ",
"      e+++f+^ r g+e                     a+h+i+j+d+Z 6+2+        ",
"      e+h+k+l+9.                        m+h+i+n+w.o+]+2+        ",
"      h+p+j.~+                          m+q+r+s+t+u+X.Y.        ",
"      k+v+3+                            m+q+w+r+5+ +x+&+        ",
"      y+y+y+                            m+q+e+z+w+>+c+u+        ",
"                                                                "};
