/* XPM */
static char * hinten_xpm[] = {
"32 32 253 2",
"  	c None",
". 	c #00547E",
"+ 	c #008A86",
"@ 	c #3BFFB8",
"# 	c #007E89",
"$ 	c #00F8A7",
"% 	c #68FFE3",
"& 	c #005881",
"* 	c #00678E",
"= 	c #008EAD",
"- 	c #00CBC8",
"; 	c #30FFDD",
"> 	c #005B82",
", 	c #005B94",
"' 	c #0060B4",
") 	c #0078CA",
"! 	c #00C8D3",
"~ 	c #5CFFE7",
"{ 	c #A7FFF4",
"] 	c #005E85",
"^ 	c #005C9A",
"/ 	c #005CC0",
"( 	c #0069D8",
"_ 	c #0097DC",
": 	c #00F0D2",
"< 	c #4FFFD8",
"[ 	c #81FFE7",
"} 	c #006188",
"| 	c #0063A1",
"1 	c #0066D0",
"2 	c #006FEB",
"3 	c #0079E5",
"4 	c #008BCF",
"5 	c #00B1BB",
"6 	c #1FFFC4",
"7 	c #8CFFE9",
"8 	c #00658A",
"9 	c #006BA6",
"0 	c #0073F5",
"a 	c #006CEB",
"b 	c #0073BD",
"c 	c #00C4BB",
"d 	c #5DFFDC",
"e 	c #00688C",
"f 	c #0070D8",
"g 	c #006FEF",
"h 	c #0068DA",
"i 	c #0070C9",
"j 	c #0098C6",
"k 	c #00E8C7",
"l 	c #44FFD9",
"m 	c #006C8E",
"n 	c #006FA8",
"o 	c #0074D5",
"p 	c #0079F2",
"q 	c #007EE6",
"r 	c #0083D9",
"s 	c #0083D1",
"t 	c #0088C8",
"u 	c #00A5C3",
"v 	c #11FFC9",
"w 	c #007191",
"x 	c #0072A8",
"y 	c #0078D2",
"z 	c #007BF0",
"A 	c #0084F4",
"B 	c #008EEF",
"C 	c #0093E6",
"D 	c #0070CE",
"E 	c #0078C7",
"F 	c #00C3C6",
"G 	c #60FFE2",
"H 	c #007494",
"I 	c #0076AA",
"J 	c #0081ED",
"K 	c #008CF4",
"L 	c #009CF2",
"M 	c #00A5ED",
"N 	c #009FE5",
"O 	c #0093DC",
"P 	c #0095D8",
"Q 	c #00B6D0",
"R 	c #00FFD4",
"S 	c #48FFE1",
"T 	c #87FFEE",
"U 	c #007896",
"V 	c #0079AC",
"W 	c #007DD0",
"X 	c #0084EB",
"Y 	c #0092F3",
"Z 	c #00A8F2",
"` 	c #00BAF1",
" .	c #00CCF2",
"..	c #00D9F1",
"+.	c #00DDEE",
"@.	c #00C8E3",
"#.	c #00ADD7",
"$.	c #29FFD9",
"%.	c #A3FFF4",
"&.	c #007D99",
"*.	c #007EAD",
"=.	c #0083D2",
"-.	c #008BEB",
";.	c #00B5F4",
">.	c #00D0F3",
",.	c #00EEF9",
"'.	c #0EFFFF",
").	c #18FFFD",
"!.	c #00E4EE",
"~.	c #00AADB",
"{.	c #009DD1",
"].	c #00F8D1",
"^.	c #84FFEE",
"/.	c #00829C",
"(.	c #0084B0",
"_.	c #008AD5",
":.	c #0095F0",
"<.	c #00A9F7",
"[.	c #00C6F6",
"}.	c #00E5F4",
"|.	c #07FFFA",
"1.	c #24FFFF",
"2.	c #30FFFD",
"3.	c #26FFF9",
"4.	c #0AFFEB",
"5.	c #00FCE0",
"6.	c #1AFFDE",
"7.	c #43FFE1",
"8.	c #56FFE3",
"9.	c #00889F",
"0.	c #008AB2",
"a.	c #00A1F6",
"b.	c #00B6FC",
"c.	c #00D8F9",
"d.	c #00FAF5",
"e.	c #19FFF9",
"f.	c #46FFFF",
"g.	c #5DFFFF",
"h.	c #6FFFFF",
"i.	c #6FFFFE",
"j.	c #46FFEB",
"k.	c #00D7CD",
"l.	c #008CA2",
"m.	c #0090B5",
"n.	c #009BDD",
"o.	c #00ACFA",
"p.	c #00C5FF",
"q.	c #00EBFA",
"r.	c #15FFF7",
"s.	c #2EFFFC",
"t.	c #4BFFFF",
"u.	c #7BFFFF",
"v.	c #7AFFFE",
"w.	c #4BFFEB",
"x.	c #0093A6",
"y.	c #0096B8",
"z.	c #00A2DF",
"A.	c #00B5FB",
"B.	c #00D1FE",
"C.	c #00FFFF",
"D.	c #51FFFF",
"E.	c #67FFFE",
"F.	c #41FFEE",
"G.	c #25FFE4",
"H.	c #31FFE1",
"I.	c #4BFFE3",
"J.	c #59FFE4",
"K.	c #009BBB",
"L.	c #00AADF",
"M.	c #00C0FC",
"N.	c #00E2FF",
"O.	c #69FFFF",
"P.	c #85FFFF",
"Q.	c #89FFFF",
"R.	c #59FFF0",
"S.	c #00F7D8",
"T.	c #00CBD0",
"U.	c #1FFFD6",
"V.	c #8EFFF0",
"W.	c #B8FFF9",
"X.	c #009AAB",
"Y.	c #00A1BD",
"Z.	c #00B4E1",
"`.	c #00FAFF",
" +	c #38FFFF",
".+	c #74FFFE",
"++	c #70FFF8",
"@+	c #00EFCE",
"#+	c #4CFFDE",
"$+	c #B0FFF5",
"%+	c #009EAF",
"&+	c #00A7C0",
"*+	c #00BEE2",
"=+	c #1EFFFF",
"-+	c #6AFFF8",
";+	c #38FFEB",
">+	c #14FFDC",
",+	c #26FFDD",
"'+	c #6FFFE7",
")+	c #98FFF1",
"!+	c #00A3B1",
"~+	c #00B0C1",
"{+	c #00D0E4",
"]+	c #5DFFF2",
"^+	c #00CED0",
"/+	c #1AFFD6",
"(+	c #C1FFFA",
"_+	c #00A7B4",
":+	c #00BFC3",
"<+	c #00F7E4",
"[+	c #65FFFF",
"}+	c #69FFF4",
"|+	c #12FFD7",
"1+	c #00FFCF",
"2+	c #51FFE0",
"3+	c #A8FFF4",
"4+	c #00ADB7",
"5+	c #00D6C4",
"6+	c #37FFEB",
"7+	c #32FFEE",
"8+	c #30FFDE",
"9+	c #59FFE5",
"0+	c #7BFFEB",
"a+	c #A0FFF3",
"b+	c #00E6C5",
"c+	c #56FFED",
"d+	c #87FFFF",
"e+	c #63FFF8",
"f+	c #0AFFDD",
"g+	c #00DCCF",
"h+	c #90FFEE",
"i+	c #C7FFFC",
"j+	c #00B5BD",
"k+	c #00DDC5",
"l+	c #3AFFE1",
"m+	c #2BFFDE",
"n+	c #65FFE4",
"o+	c #00B9C1",
"p+	c #00E5CE",
"q+	c #3FFFE3",
"r+	c #6AFFE7",
"s+	c #ACFFF5",
"t+	c #00BEC2",
"u+	c #00BDCA",
"v+	c #3FFFDF",
"w+	c #9DFFF2",
"x+	c #CEFFFD",
"y+	c #00D1C9",
"z+	c #00FACC",
"A+	c #35FFD9",
"B+	c #BAFFF8",
"C+	c #00CACD",
"D+	c #D3FFFE",
"                                                                ",
"                                                                ",
"                . + @                                           ",
"                . # $ %                                         ",
"                & * = - ;                                       ",
"                > , ' ) ! ~ {                                   ",
"                ] ^ / ( _ : < [                                 ",
"                } | 1 2 3 4 5 6 7                               ",
"                8 9 ( 0 a 1 b c d {                             ",
"                e 9 f 0 g h i j k l [                           ",
"                m n o p p q r s t u v                           ",
"                w x y z A B C r D E F G                         ",
"                H I y J K L M N O P Q R S T                     ",
"                U V W X Y Z `  ...+.@.#.Q $.%.                  ",
"                &.*.=.-.L ;.>.,.'.).!.~.{.].^.                  ",
"                /.(._.:.<.[.}.|.1.2.3.4.5.6.7.8.                ",
"                9.0.P a.b.c.d.e.2.f.g.h.i.j.].k.                ",
"                l.m.n.o.p.q.r.s.t.g.i.u.v.w.R k.                ",
"                x.y.z.A.B.C.s.D.h.u.E.F.G.H.I.J.                ",
"                x.K.L.M.N.).f.O.P.Q.R.S.T.U.V.W.                ",
"                X.Y.Z.B.`. +g.h..+++j.R @+#+$+                  ",
"                %+&+*+N.=+g.u.-+;+>+,+S '+)+                    ",
"                !+~+{+`. +.+Q.]+S.^+/+T (+                      ",
"                _+:+<+2.t.[+}+w.|+1+2+3+                        ",
"                4+5+6+E.g.7+6.8+9+0+a+(+                        ",
"                5 b+c+d+e+f+g+$.h+i+                            ",
"                j+k+l+}+R.m+U.n+$+                              ",
"                o+F p+|+q+r+h+s+                                ",
"                t+o+u+g+v+w+x+                                  ",
"                F y+z+A+0+B+                                    ",
"                C+1+r+3+(+                                      ",
"                T./+)+D+                                        "};
