/* XPM */
static char * loeschen_xpm[] = {
"32 32 156 2",
"  	c None",
". 	c #FFFFCC",
"+ 	c #FEFF6B",
"@ 	c #FEA200",
"# 	c #FFE200",
"$ 	c #FFFF8E",
"% 	c #FFFFC2",
"& 	c #FFFFAE",
"* 	c #FDFF53",
"= 	c #FFB400",
"- 	c #FFFF38",
"; 	c #FFFF73",
"> 	c #FFFF7C",
", 	c #FDFF26",
"' 	c #FE7F00",
") 	c #FE8300",
"! 	c #FCC600",
"~ 	c #FFFF63",
"{ 	c #FFFFAD",
"] 	c #FFFFEF",
"^ 	c #FFFFDE",
"/ 	c #FFFFA4",
"( 	c #FFFF69",
"_ 	c #FFFF19",
": 	c #FF9700",
"< 	c #FE7600",
"[ 	c #FE6E00",
"} 	c #FE8E00",
"| 	c #FFBF00",
"1 	c #FFFF18",
"2 	c #FFFF55",
"3 	c #FFFFD6",
"4 	c #FFFF9D",
"5 	c #F1FF9A",
"6 	c #FFFD00",
"7 	c #FFFF8B",
"8 	c #FAD600",
"9 	c #F0FF35",
"0 	c #D8FFE3",
"a 	c #E5FFD0",
"b 	c #FEFF9E",
"c 	c #FE6500",
"d 	c #FB6100",
"e 	c #FFC900",
"f 	c #FBF800",
"g 	c #E1FF8F",
"h 	c #D6FFCE",
"i 	c #CCFFFF",
"j 	c #E0FFF8",
"k 	c #F9FFD3",
"l 	c #FFE600",
"m 	c #FF8D00",
"n 	c #FFB300",
"o 	c #FDBC00",
"p 	c #FFBD00",
"q 	c #FAFF4B",
"r 	c #DCFFD4",
"s 	c #FA4900",
"t 	c #FE5A00",
"u 	c #FFFFC7",
"v 	c #FFFFE4",
"w 	c #FC4F00",
"x 	c #FFFFC8",
"y 	c #FDFF41",
"z 	c #FF9F00",
"A 	c #FFFFEE",
"B 	c #FFFF96",
"C 	c #FF8300",
"D 	c #FFFFB2",
"E 	c #FD5400",
"F 	c #FFFF98",
"G 	c #FF3600",
"H 	c #FA2E00",
"I 	c #F62E00",
"J 	c #F13700",
"K 	c #F94B00",
"L 	c #FF6600",
"M 	c #FBFFC1",
"N 	c #FD4200",
"O 	c #FE3D00",
"P 	c #F54B00",
"Q 	c #F55800",
"R 	c #F44500",
"S 	c #FD6C00",
"T 	c #FCFFE1",
"U 	c #FBFF10",
"V 	c #ED7B00",
"W 	c #F26500",
"X 	c #E4E600",
"Y 	c #F8FFA3",
"Z 	c #FFFFCA",
"` 	c #FFAE00",
" .	c #F35100",
"..	c #E62800",
"+.	c #E86C00",
"@.	c #FFFFE0",
"#.	c #FFFF97",
"$.	c #D6F600",
"%.	c #E8FF73",
"&.	c #F4FFBC",
"*.	c #F08600",
"=.	c #E08A00",
"-.	c #D6C700",
";.	c #FFFFF9",
">.	c #E73B00",
",.	c #D14300",
"'.	c #D6A400",
").	c #E2FF7D",
"!.	c #ECFFBD",
"~.	c #F9FD00",
"{.	c #EB9500",
"].	c #D43000",
"^.	c #CD4F00",
"/.	c #DCFF55",
"(.	c #FFFFC4",
"_.	c #D95A00",
":.	c #CC9500",
"<.	c #EAFF97",
"[.	c #EBFF86",
"}.	c #FFFFF7",
"|.	c #E24D00",
"1.	c #D77E00",
"2.	c #EBFF96",
"3.	c #F5FFE1",
"4.	c #FFFFF1",
"5.	c #DA2A00",
"6.	c #C14100",
"7.	c #C7E700",
"8.	c #F4FFA1",
"9.	c #DF5500",
"0.	c #CD6B00",
"a.	c #DEFF5E",
"b.	c #F5FFD7",
"c.	c #D13800",
"d.	c #FBFFDC",
"e.	c #FFFFFC",
"f.	c #C31900",
"g.	c #D0FF28",
"h.	c #F4FFC7",
"i.	c #D61A00",
"j.	c #CB2C00",
"k.	c #FFFFFF",
"l.	c #C11F00",
"m.	c #F8FF52",
"n.	c #E01900",
"o.	c #FCFFCD",
"p.	c #DB7300",
"q.	c #EEFF64",
"r.	c #E15000",
"s.	c #EBFF6F",
"t.	c #FFFFDF",
"u.	c #FCFF84",
"v.	c #F1B600",
"w.	c #EC9E00",
"x.	c #E7FF04",
"y.	c #FCFFD2",
"                                                                ",
"    . + @ # $ %                                                 ",
"    & * @ = - ;                                                 ",
"    > , @ ' ) ! ~ {                                 ] ^ / (     ",
"    + _ : < [ } _ +                                 / $ ~ -     ",
"    + , @ ' ' ) @ | 1 2                         3 4 _ = | #     ",
"    5 + 6 | : ' [ ' ! _                         7 ~ | ) 8 9     ",
"    0 a b * ! ) c d ' @ = =                   e = = | f g h     ",
"    i j k 7 l m ' [ c c ) @ n               o @ [ < p q r i     ",
"                  # ' s t < m     u v     = } : @ =             ",
"                  * = t w d < @ _ / x > 6 @ < } #               ",
"                    2 , = c c } ! , y 6 = : ) z                 ",
"                    ^ x * ) c ) ) < [ [ [ } =                   ",
"                      A B 1 | } [ t w t d C                     ",
"                          D ~ @ d t t d c                       ",
"                          4 y ) w s s w w E                     ",
"                      A F # ) w G H I I J K L                   ",
"                    ^ M * < N O O P Q R J s Q S                 ",
"                  T 7 U : w N P V U y 8 < P J W                 ",
"                A x , c N O Q V X Y Z ~ `  ...+., ;             ",
"              @.#.y @ w J J +.$.%.&.      *.V V =.-.            ",
"            ;.x _ < w P >.,.'.).!.          ~.{.].^./.k         ",
"          @.(.> = w J >._.:.  <.              *.].,.$.[.&.      ",
"        }.. * | [ s ..].:./.<.                  |._.1.-.2.3.    ",
"        4.& 8 d R J 5.6.7.8.T                     9.,.0.a.b.    ",
"        Z + ) J ..5.c.0./.d.e.                      f.6.g.h.    ",
"        F , Q ..i.j.0.$.5 }.k.                      l.6.g.M     ",
"        m.! >.n.i.,.$.8.o.                          p.'.q.M     ",
"        q ! r.5.,.1.s.t.                              ~.u.(.    ",
"        F * v.w.x.m.<.                                          ",
"        y.b , , $ (.                                            ",
"                                                                "};
