/* XPM */
static char * vorne_xpm[] = {
"32 32 252 2",
"  	c None",
". 	c #3BFFB8",
"+ 	c #008A86",
"@ 	c #00547E",
"# 	c #68FFE3",
"$ 	c #00F8A7",
"% 	c #007E89",
"& 	c #30FFDD",
"* 	c #00CBC8",
"= 	c #008EAD",
"- 	c #00678E",
"; 	c #005881",
"> 	c #A7FFF4",
", 	c #5CFFE7",
"' 	c #00C8D3",
") 	c #0078CA",
"! 	c #0060B4",
"~ 	c #005B94",
"{ 	c #005B82",
"] 	c #83FFE6",
"^ 	c #4FFFD8",
"/ 	c #00F0D2",
"( 	c #0097DC",
"_ 	c #0069D9",
": 	c #005CC0",
"< 	c #005C9A",
"[ 	c #005E85",
"} 	c #8CFFE9",
"| 	c #1FFFC4",
"1 	c #00B1BB",
"2 	c #008BCF",
"3 	c #0079E5",
"4 	c #006FEB",
"5 	c #0066D0",
"6 	c #0063A1",
"7 	c #006188",
"8 	c #ACFFF5",
"9 	c #5DFFDC",
"0 	c #00C4BB",
"a 	c #0073BD",
"b 	c #006CEB",
"c 	c #0073F5",
"d 	c #006BA6",
"e 	c #00658A",
"f 	c #80FFE8",
"g 	c #44FFD9",
"h 	c #00E8C7",
"i 	c #0098C6",
"j 	c #0070C9",
"k 	c #006FEF",
"l 	c #0070D8",
"m 	c #00688C",
"n 	c #11FFC9",
"o 	c #00A5C3",
"p 	c #0088C8",
"q 	c #0083D1",
"r 	c #0083D9",
"s 	c #007EE6",
"t 	c #0079F2",
"u 	c #0074D5",
"v 	c #006FA8",
"w 	c #006C8E",
"x 	c #60FFE2",
"y 	c #00C3C6",
"z 	c #0078C7",
"A 	c #0070CE",
"B 	c #0093E6",
"C 	c #008EEF",
"D 	c #0084F4",
"E 	c #007BF0",
"F 	c #0078D2",
"G 	c #0072A8",
"H 	c #007191",
"I 	c #87FFEE",
"J 	c #48FFE1",
"K 	c #00FFD4",
"L 	c #00BAD4",
"M 	c #0095D8",
"N 	c #0093DC",
"O 	c #009FE5",
"P 	c #00A5ED",
"Q 	c #009CF2",
"R 	c #008CF4",
"S 	c #0081ED",
"T 	c #0076AA",
"U 	c #007494",
"V 	c #A3FFF4",
"W 	c #29FFD9",
"X 	c #00B6D0",
"Y 	c #00ADD7",
"Z 	c #00C8E3",
"` 	c #00DDEE",
" .	c #00D9F1",
"..	c #00CCF2",
"+.	c #00BAF1",
"@.	c #00A8F2",
"#.	c #0092F3",
"$.	c #0084EB",
"%.	c #007DD0",
"&.	c #0079AC",
"*.	c #007896",
"=.	c #84FFEE",
"-.	c #00F8D1",
";.	c #009DD1",
">.	c #00AADB",
",.	c #00E4EE",
"'.	c #18FFFD",
").	c #0EFFFF",
"!.	c #00EBFA",
"~.	c #00D0F3",
"{.	c #00B5F4",
"].	c #008BEB",
"^.	c #0083D2",
"/.	c #007EAD",
"(.	c #007D99",
"_.	c #56FFE3",
":.	c #43FFE1",
"<.	c #1AFFDE",
"[.	c #00FCE0",
"}.	c #0AFFEB",
"|.	c #26FFF9",
"1.	c #30FFFD",
"2.	c #24FFFF",
"3.	c #07FFFA",
"4.	c #00E5F4",
"5.	c #00C6F6",
"6.	c #00A9F7",
"7.	c #0095F0",
"8.	c #008AD5",
"9.	c #0084B0",
"0.	c #00829C",
"a.	c #00D7CD",
"b.	c #41FFEE",
"c.	c #6FFFFE",
"d.	c #5DFFFF",
"e.	c #46FFFF",
"f.	c #19FFF9",
"g.	c #00FAF5",
"h.	c #00D8F9",
"i.	c #00B6FC",
"j.	c #00A1F6",
"k.	c #008AB2",
"l.	c #00889F",
"m.	c #00D8CF",
"n.	c #4BFFEB",
"o.	c #7AFFFE",
"p.	c #6FFFFF",
"q.	c #4BFFFF",
"r.	c #2EFFFC",
"s.	c #15FFF7",
"t.	c #00C5FF",
"u.	c #00ACFA",
"v.	c #009BDD",
"w.	c #0090B5",
"x.	c #008CA2",
"y.	c #59FFE4",
"z.	c #4BFFE3",
"A.	c #31FFE1",
"B.	c #25FFE4",
"C.	c #67FFFE",
"D.	c #7BFFFF",
"E.	c #51FFFF",
"F.	c #00FFFF",
"G.	c #00D1FE",
"H.	c #00B5FB",
"I.	c #00A2DF",
"J.	c #0096B8",
"K.	c #0093A6",
"L.	c #B8FFF9",
"M.	c #8EFFF0",
"N.	c #1FFFD6",
"O.	c #00CBD0",
"P.	c #00F7D8",
"Q.	c #59FFF0",
"R.	c #89FFFF",
"S.	c #85FFFF",
"T.	c #69FFFF",
"U.	c #00E2FF",
"V.	c #00C0FC",
"W.	c #00AADF",
"X.	c #009BBB",
"Y.	c #AFFFF7",
"Z.	c #4CFFDE",
"`.	c #00EFCE",
" +	c #46FFEB",
".+	c #70FFF8",
"++	c #74FFFE",
"@+	c #38FFFF",
"#+	c #00B4E1",
"$+	c #009AAB",
"%+	c #98FFF1",
"&+	c #6FFFE7",
"*+	c #26FFDD",
"=+	c #37FFEB",
"-+	c #6AFFF8",
";+	c #00BEE2",
">+	c #00A7C0",
",+	c #009EAF",
"'+	c #C1FFFA",
")+	c #1AFFD6",
"!+	c #00CED0",
"~+	c #5DFFF2",
"{+	c #00FAFF",
"]+	c #00D0E4",
"^+	c #00B0C1",
"/+	c #00A3B1",
"(+	c #A8FFF4",
"_+	c #51FFE0",
":+	c #00FFCF",
"<+	c #12FFD7",
"[+	c #69FFF4",
"}+	c #65FFFF",
"|+	c #00F7E4",
"1+	c #00BFC3",
"2+	c #00A7B4",
"3+	c #A0FFF3",
"4+	c #7BFFEB",
"5+	c #59FFE5",
"6+	c #30FFDE",
"7+	c #32FFEE",
"8+	c #00D6C4",
"9+	c #00ADB7",
"0+	c #C7FFFC",
"a+	c #90FFEE",
"b+	c #00DCCF",
"c+	c #0AFFDD",
"d+	c #63FFF8",
"e+	c #87FFFF",
"f+	c #56FFED",
"g+	c #00E6C5",
"h+	c #B0FFF5",
"i+	c #65FFE4",
"j+	c #2BFFDE",
"k+	c #3AFFE1",
"l+	c #00DDC5",
"m+	c #00B5BD",
"n+	c #6AFFE7",
"o+	c #3FFFE3",
"p+	c #14FFDC",
"q+	c #00E5CE",
"r+	c #00B9C1",
"s+	c #CEFFFD",
"t+	c #9DFFF2",
"u+	c #3FFFDF",
"v+	c #00BDCA",
"w+	c #00BEC2",
"x+	c #BAFFF8",
"y+	c #35FFD9",
"z+	c #00FACC",
"A+	c #00D1C9",
"B+	c #00CACD",
"C+	c #D3FFFE",
"                                                                ",
"                                                                ",
"                                          . + @                 ",
"                                        # $ % @                 ",
"                                      & * = - ;                 ",
"                                  > , ' ) ! ~ {                 ",
"                                ] ^ / ( _ : < [                 ",
"                              } | 1 2 3 4 5 6 7                 ",
"                            8 9 0 a 5 b c _ d e                 ",
"                          f g h i j _ k c l d m                 ",
"                          n o p q r s t t u v w                 ",
"                        x y z A r B C D E F G H                 ",
"                    I J K L M N O P Q R S F T U                 ",
"                  V W X Y Z `  ...+.@.#.$.%.&.*.                ",
"                  =.-.;.>.,.'.).!.~.{.Q ].^./.(.                ",
"                _.:.<.[.}.|.1.2.3.4.5.6.7.8.9.0.                ",
"                a.K b.c.c.d.e.1.f.g.h.i.j.M k.l.                ",
"                m.K n.o.o.p.d.q.r.s.!.t.u.v.w.x.                ",
"                y.z.A.B.b.C.D.p.E.r.F.G.H.I.J.K.                ",
"                L.M.N.O.P.Q.R.S.T.e.'.U.V.W.X.K.                ",
"                  Y.Z.`.K  +.+++p.d.@+F.G.#+X.$+                ",
"                    %+&+J *+<.=+-+D.d.'.U.;+>+,+                ",
"                      '+I )+!+P.~+R.++@+{+]+^+/+                ",
"                        (+_+:+<+n.[+}+q.1.|+1+2+                ",
"                        '+3+4+5+6+<.7+d.C.=+8+9+                ",
"                            0+a+W b+c+d+e+f+g+1                 ",
"                              h+i+N.j+Q.[+k+l+m+                ",
"                                8 a+n+o+p+q+1+r+                ",
"                                  s+t+u+b+v+r+w+                ",
"                                    x+4+y+z+A+y                 ",
"                                      '+(+n+:+B+                ",
"                                        C+%+)+O.                "};
